<svg version="1.2" xmlns="http://www.w3.org/2000/svg" viewBox="0 0 420 297" width="500" height="354">
	<style>
		.s0 { fill: #000000 } 
	</style>
	<g id="Слой_x0020_1">
		<path fill-rule="evenodd" class="s0" d="m77.04 230.41c3.57-4.23 10.7-12.71 17.76-21.1 7.06-8.39 14.05-16.69 20.42-24.25 6.38-7.57 12.14-14.41 16.25-19.16 4.12-4.74 6.59-7.39 9-9.55 2.41-2.17 4.76-3.85 7.11-5.37 2.34-1.52 4.67-2.87 6.68-3.92 2.01-1.05 3.7-1.79 5.63-2.48 1.94-0.69 4.12-1.32 6.41-1.8 2.29-0.49 4.68-0.83 7.38-1.16 2.69-0.33 5.69-0.65 8.71-0.74 3.02-0.09 6.06 0.04 8.64 0.29 2.58 0.25 4.7 0.61 6.38 0.91 1.69 0.29 2.94 0.52 3.57 0.64 0.63 0.11 0.63 0.11 0.63 0.11 0 0 0 0-1.45-1.78-1.44-1.79-4.34-5.35-7.69-9.47-3.36-4.12-7.18-8.8-10.54-12.91-3.36-4.1-6.26-7.63-9.26-11-2.99-3.37-6.08-6.58-8.81-9.25-2.73-2.67-5.1-4.8-7.71-6.33-2.62-1.54-5.48-2.47-8.07-2.75-2.6-0.28-4.92 0.1-7.34 1.42-2.42 1.32-4.93 3.57-10.44 9.76-5.52 6.19-14.04 16.32-33.46 39.33-19.41 23.01-49.72 58.91-64.87 76.86-15.15 17.94-15.15 17.94-14.92 17.94 0.22 0 0.67 0 3.46 0 2.78 0 7.91 0 13.35 0 5.45 0 11.23 0 15.59 0 4.36 0 7.3 0 10.66 0 3.37 0 7.17 0 9.27 0 2.1 0 2.51 0 2.9 0 0.38 0 0.73 0 0.93 0 0.19 0 0.23 0 0.25 0 0.02 0 0.02 0 3.58-4.24z"/>
		<path fill-rule="evenodd" class="s0" d="m342.35 66.24c-3.56 4.24-10.7 12.72-17.76 21.1-7.06 8.39-14.04 16.69-20.42 24.26-6.37 7.57-12.13 14.41-16.25 19.15-4.11 4.75-6.58 7.39-8.99 9.56-2.42 2.16-4.77 3.84-7.11 5.36-2.35 1.52-4.68 2.88-6.69 3.93-2.01 1.04-3.69 1.79-5.63 2.47-1.93 0.69-4.11 1.32-6.4 1.81-2.29 0.48-4.68 0.83-7.38 1.16-2.7 0.33-5.7 0.65-8.72 0.74-3.02 0.09-6.06-0.05-8.64-0.3-2.58-0.25-4.69-0.61-6.38-0.91-1.68-0.29-2.94-0.52-3.57-0.63-0.62-0.12-0.62-0.12-0.62-0.12 0 0 0 0 1.44 1.79 1.45 1.78 4.34 5.35 7.7 9.47 3.35 4.12 7.17 8.8 10.53 12.9 3.36 4.1 6.27 7.63 9.26 11 3 3.37 6.09 6.58 8.82 9.25 2.73 2.67 5.09 4.8 7.71 6.34 2.61 1.53 5.47 2.47 8.07 2.75 2.59 0.27 4.92-0.11 7.34-1.43 2.41-1.31 4.92-3.57 10.44-9.76 5.51-6.19 14.04-16.31 33.45-39.32 19.42-23.01 49.72-58.91 64.87-76.86 15.15-17.95 15.15-17.95 14.93-17.95-0.23 0-0.68 0-3.46 0-2.79 0-7.91 0-13.36 0-5.45 0-11.23 0-15.58 0-4.36 0-7.3 0-10.67 0-3.37 0-7.16 0-9.26 0-2.11 0-2.52 0-2.9 0-0.38 0-0.74 0-0.93 0-0.2 0-0.23 0-0.25 0-0.02 0-0.02 0-3.59 4.24z"/>
		<path fill-rule="evenodd" class="s0" d="m170.51 94.91c0.26-0.09 0.8-0.28 1.69-0.44 0.88-0.17 2.12-0.32 3.13-0.42 1.02-0.1 1.81-0.16 2.77-0.19 0.95-0.03 2.07-0.04 3.04-0.02 0.98 0.02 1.8 0.07 2.59 0.14q1.17 0.1 2.27 0.28 1.12 0.18 2.15 0.42 1 0.23 1.9 0.49 0.9 0.26 1.81 0.58c0.62 0.22 1.26 0.46 2.02 0.77 0.75 0.3 1.61 0.68 2.4 1.05 0.79 0.36 1.5 0.71 2.27 1.11 0.78 0.41 1.62 0.87 2.42 1.34q1.2 0.7 2.32 1.46c0.76 0.5 1.5 1.04 2.08 1.48 0.59 0.44 1.01 0.78 1.51 1.21 0.5 0.42 1.08 0.92 1.79 1.59 0.72 0.68 1.57 1.52 2.46 2.43 0.88 0.91 1.81 1.88 2.56 2.71 0.76 0.84 1.34 1.54 3.05 3.65 1.7 2.11 4.52 5.62 7 8.71 2.48 3.08 4.61 5.74 7.05 8.79 2.43 3.06 5.16 6.51 7.23 9.08 2.06 2.57 3.46 4.27 4.21 5.17 0.75 0.9 0.84 1.02 0.93 1.13q0.14 0.18 0.21 0.27c0.04 0.05 0.04 0.05 0.04 0.05q0.01-0.01-0.03 0.05-0.03 0.06-0.2 0.25-0.18 0.19-0.59 0.49-0.41 0.3-1.1 0.61-0.72 0.3-1.66 0.52-0.94 0.23-1.99 0.36-1.04 0.12-2.15 0.16c-0.75 0.03-1.52 0.04-2.41 0.01q-1.34-0.03-2.98-0.18-1.63-0.16-3.45-0.53-1.83-0.38-3.77-1c-1.28-0.41-2.58-0.91-3.77-1.41-1.19-0.5-2.27-1.01-3.46-1.63-1.19-0.62-2.49-1.35-3.63-2.05-1.14-0.7-2.13-1.38-3.05-2.07-0.93-0.69-1.8-1.39-2.72-2.21-0.92-0.81-1.9-1.74-3-2.96-1.1-1.22-2.34-2.74-4.08-4.89q-2.6-3.23-6.74-8.38c-2.76-3.44-6.04-7.53-8.65-10.78-2.61-3.24-4.54-5.65-6.39-7.94-1.84-2.3-3.59-4.48-4.73-5.9-1.15-1.42-1.68-2.09-1.99-2.48-0.32-0.39-0.42-0.52-0.48-0.6q-0.08-0.1-0.1-0.12-0.03-0.03-0.04-0.04-0.01-0.02-0.01-0.02c0 0 0 0 0.27-0.1z"/>
		<path fill-rule="evenodd" class="s0" d="m249.01 201.46c-0.27 0.09-0.81 0.28-1.69 0.45-0.89 0.17-2.12 0.31-3.14 0.42-1.01 0.1-1.81 0.15-2.76 0.18-0.96 0.04-2.08 0.04-3.05 0.02-0.97-0.02-1.8-0.06-2.58-0.13q-1.17-0.1-2.28-0.28-1.12-0.19-2.15-0.42-1-0.23-1.89-0.5-0.9-0.26-1.82-0.58c-0.62-0.21-1.26-0.45-2.01-0.76-0.76-0.31-1.62-0.69-2.41-1.05-0.78-0.37-1.49-0.71-2.27-1.12-0.77-0.41-1.62-0.87-2.42-1.34q-1.2-0.7-2.32-1.45c-0.75-0.51-1.49-1.05-2.08-1.49-0.58-0.44-1.01-0.78-1.51-1.2-0.5-0.42-1.08-0.93-1.79-1.6-0.71-0.67-1.57-1.52-2.45-2.43-0.89-0.9-1.81-1.87-2.57-2.71-0.75-0.84-1.34-1.54-3.04-3.65-1.71-2.1-4.53-5.62-7.01-8.7-2.47-3.09-4.61-5.75-7.04-8.8-2.44-3.06-5.17-6.51-7.23-9.08-2.07-2.57-3.47-4.26-4.22-5.17-0.75-0.9-0.84-1.02-0.92-1.13q-0.14-0.17-0.21-0.26c-0.04-0.05-0.05-0.05-0.05-0.05q0 0 0.03-0.05 0.03-0.07 0.2-0.26 0.18-0.19 0.59-0.48 0.41-0.31 1.11-0.62 0.71-0.3 1.66-0.52 0.94-0.22 1.99-0.35 1.04-0.13 2.15-0.17c0.74-0.03 1.51-0.03 2.4-0.01q1.35 0.03 2.98 0.19 1.63 0.15 3.45 0.52 1.83 0.38 3.77 1c1.29 0.42 2.59 0.91 3.77 1.41 1.19 0.51 2.27 1.02 3.46 1.63 1.19 0.62 2.49 1.35 3.64 2.05 1.14 0.7 2.12 1.38 3.05 2.07 0.92 0.69 1.79 1.4 2.71 2.21 0.93 0.82 1.9 1.74 3 2.96 1.11 1.22 2.34 2.74 4.08 4.89q2.6 3.23 6.74 8.39c2.76 3.44 6.05 7.52 8.66 10.77 2.6 3.25 4.54 5.65 6.38 7.95 1.84 2.29 3.6 4.47 4.74 5.9 1.14 1.42 1.67 2.08 1.99 2.47 0.31 0.4 0.42 0.52 0.48 0.6q0.08 0.1 0.09 0.12 0.03 0.03 0.04 0.05 0.01 0.01 0.01 0.01c0 0 0.01 0-0.26 0.1z"/>
	</g>
</svg>