<svg version="1.2" xmlns="http://www.w3.org/2000/svg" viewBox="0 0 420 297" width="420" height="297">
	<style>
		tspan { white-space:pre } 
		.s0 { fill: #ffffff } 
		.t1 { font-size: 13px;fill: #000000;font-weight: 400;font-family: "LiberationSans", "Liberation Sans" } 
	</style>
	<g id="Слой_x0020_1">
		<path fill-rule="evenodd" class="s0" d="m60.71 222.45c3.25-3.86 9.75-11.58 16.18-19.23 6.43-7.64 12.8-15.2 18.61-22.1 5.81-6.89 11.05-13.12 14.8-17.45 3.75-4.32 6-6.73 8.2-8.71 2.2-1.97 4.34-3.5 6.48-4.88 2.13-1.39 4.26-2.62 6.09-3.58 1.83-0.95 3.37-1.63 5.13-2.26 1.76-0.62 3.75-1.2 5.84-1.64 2.08-0.44 4.26-0.75 6.72-1.06 2.46-0.3 5.19-0.59 7.94-0.67 2.75-0.08 5.52 0.04 7.87 0.27 2.35 0.23 4.28 0.56 5.82 0.83 1.53 0.26 2.68 0.47 3.25 0.58 0.57 0.1 0.57 0.1 0.57 0.1 0 0 0 0-1.32-1.63-1.32-1.62-3.95-4.87-7.01-8.62-3.06-3.76-6.54-8.02-9.6-11.76-3.06-3.74-5.7-6.96-8.44-10.03-2.73-3.07-5.54-5.99-8.03-8.42-2.48-2.44-4.64-4.38-7.02-5.78-2.38-1.39-4.99-2.25-7.36-2.5-2.36-0.25-4.48 0.09-6.68 1.3-2.2 1.2-4.49 3.25-9.52 8.89-5.02 5.64-12.79 14.86-30.48 35.83-17.69 20.97-45.3 53.68-59.11 70.03-13.8 16.36-13.8 16.36-13.6 16.36 0.21 0 0.62 0 3.16 0 2.53 0 7.2 0 12.17 0 4.96 0 10.23 0 14.2 0 3.97 0 6.65 0 9.71 0 3.07 0 6.53 0 8.45 0 1.91 0 2.29 0 2.64 0 0.34 0 0.67 0 0.85 0 0.17 0 0.21 0 0.22 0 0.02 0 0.02 0 3.27-3.87z"/>
		<path fill-rule="evenodd" class="s0" d="m302.45 72.86c-3.25 3.86-9.75 11.59-16.18 19.23-6.43 7.64-12.8 15.21-18.61 22.1-5.81 6.9-11.05 13.13-14.8 17.45-3.75 4.33-6 6.74-8.2 8.71-2.2 1.97-4.34 3.51-6.48 4.89-2.13 1.38-4.26 2.62-6.09 3.57-1.83 0.96-3.37 1.64-5.13 2.26-1.76 0.63-3.75 1.2-5.84 1.65-2.08 0.44-4.26 0.75-6.72 1.05-2.46 0.3-5.19 0.59-7.94 0.68-2.75 0.08-5.52-0.05-7.87-0.27-2.35-0.23-4.28-0.56-5.82-0.83-1.53-0.27-2.68-0.47-3.25-0.58-0.57-0.1-0.57-0.1-0.57-0.1 0 0 0 0 1.32 1.62 1.32 1.63 3.95 4.88 7.01 8.63 3.06 3.76 6.54 8.02 9.6 11.76 3.06 3.74 5.7 6.95 8.44 10.02 2.73 3.07 5.54 6 8.03 8.43 2.48 2.43 4.64 4.37 7.02 5.77 2.38 1.4 4.99 2.25 7.36 2.51 2.36 0.25 4.48-0.1 6.68-1.3 2.2-1.2 4.49-3.25 9.52-8.89 5.02-5.64 12.79-14.87 30.48-35.83 17.69-20.97 45.3-53.68 59.11-70.04 13.8-16.35 13.8-16.35 13.6-16.35-0.21 0-0.62 0-3.16 0-2.53 0-7.2 0-12.17 0-4.96 0-10.23 0-14.2 0-3.97 0-6.65 0-9.71 0-3.07 0-6.53 0-8.45 0-1.91 0-2.29 0-2.64 0-0.34 0-0.67 0-0.85 0-0.17 0-0.21 0-0.22 0-0.02 0-0.02 0-3.27 3.86z"/>
		<path fill-rule="evenodd" class="s0" d="m145.87 98.99c0.24-0.09 0.73-0.26 1.54-0.41 0.81-0.15 1.93-0.29 2.86-0.38 0.92-0.09 1.65-0.14 2.52-0.17 0.87-0.03 1.89-0.04 2.77-0.02 0.89 0.02 1.64 0.06 2.36 0.12q1.06 0.1 2.07 0.26 1.02 0.17 1.96 0.38 0.91 0.21 1.73 0.45 0.82 0.24 1.65 0.53c0.56 0.2 1.15 0.42 1.83 0.7 0.69 0.28 1.48 0.62 2.19 0.96 0.72 0.33 1.37 0.65 2.07 1.02 0.71 0.36 1.48 0.78 2.21 1.21q1.09 0.64 2.11 1.33c0.69 0.46 1.37 0.95 1.9 1.35 0.53 0.4 0.92 0.71 1.37 1.1 0.46 0.38 0.99 0.84 1.64 1.46 0.65 0.61 1.42 1.38 2.23 2.21 0.81 0.82 1.65 1.71 2.34 2.47 0.69 0.76 1.22 1.4 2.77 3.32 1.56 1.92 4.13 5.12 6.38 7.93 2.26 2.82 4.21 5.24 6.43 8.02 2.21 2.78 4.7 5.93 6.58 8.27 1.89 2.35 3.16 3.89 3.84 4.71 0.68 0.83 0.77 0.93 0.85 1.03q0.12 0.16 0.19 0.24 0.05 0.06 0.04 0.05 0.01-0.01-0.03 0.04-0.02 0.07-0.18 0.24-0.17 0.17-0.54 0.44-0.37 0.27-1.01 0.56-0.64 0.27-1.51 0.48-0.85 0.2-1.81 0.32-0.95 0.11-1.96 0.15c-0.68 0.02-1.38 0.03-2.19 0.01q-1.23-0.03-2.72-0.17-1.48-0.14-3.14-0.48-1.67-0.35-3.43-0.91c-1.18-0.38-2.36-0.83-3.44-1.29-1.08-0.46-2.07-0.92-3.15-1.48-1.09-0.57-2.27-1.23-3.31-1.87-1.04-0.64-1.94-1.25-2.78-1.88-0.85-0.63-1.64-1.27-2.48-2.02-0.84-0.74-1.73-1.58-2.73-2.7-1.01-1.11-2.13-2.49-3.72-4.45q-2.37-2.94-6.14-7.64c-2.52-3.14-5.51-6.86-7.89-9.82-2.37-2.96-4.13-5.15-5.81-7.24-1.68-2.09-3.28-4.08-4.32-5.37-1.04-1.3-1.52-1.9-1.81-2.26-0.29-0.36-0.38-0.48-0.44-0.54q-0.07-0.1-0.09-0.12-0.02-0.02-0.03-0.04-0.01-0.01-0.01-0.01c0 0 0 0 0.24-0.09z"/>
		<path fill-rule="evenodd" class="s0" d="m217.4 196.07c-0.25 0.09-0.74 0.26-1.54 0.41-0.81 0.15-1.93 0.29-2.86 0.38-0.92 0.09-1.65 0.14-2.52 0.17-0.87 0.03-1.89 0.04-2.78 0.02-0.88-0.02-1.63-0.06-2.35-0.12q-1.07-0.1-2.07-0.26-1.02-0.17-1.96-0.38-0.91-0.21-1.73-0.45-0.82-0.24-1.65-0.53c-0.57-0.2-1.15-0.42-1.84-0.7-0.68-0.28-1.47-0.62-2.19-0.95-0.71-0.34-1.36-0.65-2.07-1.02-0.7-0.37-1.47-0.79-2.2-1.22q-1.09-0.64-2.12-1.33c-0.68-0.46-1.36-0.95-1.89-1.35-0.53-0.4-0.92-0.71-1.38-1.1-0.45-0.38-0.98-0.84-1.63-1.46-0.65-0.61-1.43-1.38-2.23-2.2-0.81-0.83-1.65-1.72-2.34-2.48-0.69-0.76-1.22-1.4-2.77-3.32-1.56-1.92-4.13-5.12-6.39-7.93-2.26-2.81-4.2-5.24-6.42-8.02-2.21-2.78-4.7-5.93-6.58-8.27-1.89-2.35-3.16-3.89-3.85-4.71-0.68-0.82-0.76-0.93-0.84-1.03q-0.13-0.16-0.19-0.24-0.05-0.06-0.04-0.05-0.01 0.01 0.02-0.04 0.03-0.06 0.19-0.24 0.16-0.17 0.54-0.44 0.37-0.27 1-0.56 0.65-0.27 1.51-0.47 0.86-0.21 1.82-0.33 0.95-0.11 1.96-0.15c0.67-0.02 1.38-0.03 2.19-0.01q1.22 0.03 2.71 0.17 1.49 0.14 3.15 0.48 1.67 0.35 3.43 0.91c1.17 0.38 2.36 0.83 3.44 1.29 1.08 0.46 2.07 0.92 3.15 1.49 1.08 0.56 2.27 1.22 3.31 1.86 1.04 0.64 1.94 1.26 2.78 1.88 0.85 0.63 1.64 1.28 2.48 2.02 0.84 0.74 1.72 1.58 2.73 2.7 1.01 1.11 2.13 2.49 3.71 4.46q2.37 2.94 6.15 7.63c2.51 3.14 5.51 6.86 7.88 9.82 2.38 2.96 4.14 5.15 5.82 7.24 1.68 2.09 3.28 4.08 4.32 5.38 1.04 1.29 1.52 1.89 1.81 2.25 0.29 0.36 0.38 0.48 0.44 0.55q0.07 0.09 0.09 0.11 0.02 0.03 0.03 0.04 0.01 0.01 0.01 0.01c0 0 0 0-0.24 0.09z"/>
		<g>
			<text id="строительная компания" style="transform: matrix(.021,0,0,.021,86.519,224.918)" >
				<tspan x="0" y="0" class="t1">строительная компания
</tspan>
			</text>
		</g>
		<path class="s0" d="m316.18 143.58l14.29-0.36-28.76 33.72q-6.14 7.19-6.32 9.34-0.18 2.15 4.99 2.12l2.69-0.02q5.17-0.04 8.63-2.18 3.48-2.16 9.66-9.49l28.62-33.99 14.71-0.37-29.56 35.44q-6.74 8.07-10.86 11.91-4.12 3.84-8.68 6.67-5.43 3.34-10.54 4.77-5.12 1.45-11.73 1.45l-7.26 0.01q-6.55 0.01-9.14-1.42-2.6-1.4-2.3-4.68 0.24-2.79 2.62-6.62 2.35-3.8 9.02-11.55zm9.53 58.22l49.47-59.73 22.76-0.58q13.22-0.34 15.31 3.11 2.09 3.47-5.2 12.56l-3.88 4.84q-4.92 6.13-10.59 9.66-5.67 3.53-11.84 4.33 5.07 0.96 5.28 4.02 0.22 3.08-4.41 8.85l-10.35 12.89-16.01 0.02 9.07-11.19q3.2-3.94 2.97-5.39-0.23-1.45-4.06-1.42l-8.52 0.07-14.71 17.94zm41.19-31.6l8.57-0.11q3.85-0.06 6.4-1.5 2.55-1.43 5.63-5.23l1.86-2.29q3.08-3.81 2.83-5.2-0.27-1.38-4.07-1.31l-8.54 0.18z"/>
	</g>
</svg>

